<svg width="512" height="512" viewBox="0 0 512 512" fill="none" xmlns="http://www.w3.org/2000/svg">
  <!-- Background Blue Circle -->
  <circle cx="256" cy="256" r="256" fill="#00A3FF"/>
  
  <!-- White S Shape -->
  <path d="M256 120C200 120 160 160 160 216C160 272 200 312 256 312C312 312 352 272 352 216C352 160 312 120 256 120ZM256 272C225 272 200 247 200 216C200 185 225 160 256 160C287 160 312 185 312 216C312 247 287 272 256 272Z" fill="white"/>
  
  <!-- Second Circle -->
  <path d="M340 200C284 200 244 240 244 296C244 352 284 392 340 392C396 392 436 352 436 296C436 240 396 200 340 200ZM340 352C309 352 284 327 284 296C284 265 309 240 340 240C371 240 396 265 396 296C396 327 371 352 340 352Z" fill="white"/>
  
  <!-- Third Circle -->
  <path d="M172 200C116 200 76 240 76 296C76 352 116 392 172 392C228 392 268 352 268 296C268 240 228 200 172 200ZM172 352C141 352 116 327 116 296C116 265 141 240 172 240C203 240 228 265 228 296C228 327 203 352 172 352Z" fill="white"/>
</svg> 