<svg width="200" height="50" viewBox="0 0 200 50" fill="none" xmlns="http://www.w3.org/2000/svg">
  <path d="M20.5 10C15.2533 10 11 14.2533 11 19.5C11 24.7467 15.2533 29 20.5 29C25.7467 29 30 24.7467 30 19.5C30 14.2533 25.7467 10 20.5 10ZM20.5 25C17.4624 25 15 22.5376 15 19.5C15 16.4624 17.4624 14 20.5 14C23.5376 14 26 16.4624 26 19.5C26 22.5376 23.5376 25 20.5 25Z" fill="white"/>
  <path d="M39 10C33.7533 10 29.5 14.2533 29.5 19.5C29.5 24.7467 33.7533 29 39 29C44.2467 29 48.5 24.7467 48.5 19.5C48.5 14.2533 44.2467 10 39 10ZM39 25C35.9624 25 33.5 22.5376 33.5 19.5C33.5 16.4624 35.9624 14 39 14C42.0376 14 44.5 16.4624 44.5 19.5C44.5 22.5376 42.0376 25 39 25Z" fill="white"/>
  <path d="M57.5 10C52.2533 10 48 14.2533 48 19.5C48 24.7467 52.2533 29 57.5 29C62.7467 29 67 24.7467 67 19.5C67 14.2533 62.7467 10 57.5 10ZM57.5 25C54.4624 25 52 22.5376 52 19.5C52 16.4624 54.4624 14 57.5 14C60.5376 14 63 16.4624 63 19.5C63 22.5376 60.5376 25 57.5 25Z" fill="white"/>
  <path d="M76 10C70.7533 10 66.5 14.2533 66.5 19.5C66.5 24.7467 70.7533 29 76 29C81.2467 29 85.5 24.7467 85.5 19.5C85.5 14.2533 81.2467 10 76 10ZM76 25C72.9624 25 70.5 22.5376 70.5 19.5C70.5 16.4624 72.9624 14 76 14C79.0376 14 81.5 16.4624 81.5 19.5C81.5 22.5376 79.0376 25 76 25Z" fill="white"/>
  <circle cx="95" cy="19.5" r="9.5" fill="#00A3FF"/>
  <path d="M115 10H111V29H115V10Z" fill="white"/>
  <path d="M127 10H123V29H127V10Z" fill="white"/>
  <path d="M139 10H135V29H139V10Z" fill="white"/>
  <path d="M151 10H147V29H151V10Z" fill="white"/>
  <path d="M163 10H159V29H163V10Z" fill="white"/>
  <path d="M175 10H171V29H175V10Z" fill="white"/>
  <path d="M187 10H183V29H187V10Z" fill="white"/>
</svg> 